# xmcd
#
# Track frame offsets: 
#        150
#        18432
#        36677
#        53226
#        68673
#        90208
#        109237
#        126004
#        143185
#        162316
#        181762
#        205641
#        232004
#
# Disc length: 3314 seconds
#
# Revision: 1
# Processed by: cddbd v1.5.2PL0 Copyright (c) Steve Scherf et al.
# Submitted via: ExactAudioCopyFreeDBPlugin 1.0
#
DISCID=ad0cf00d
DTITLE=Jurga - Aukso pieva
DYEAR=2005
DGENRE=Jazz
TTITLE0=Aukso pieva
TTITLE1=As esu tiktai jei tu esi
TTITLE2=Nebijok
TTITLE3=Trouble
TTITLE4=Pilnatis
TTITLE5=Laisve
TTITLE6=Kai pamirsi tu mane
TTITLE7=The Longest Day
TTITLE8=Geliu takai
TTITLE9=Galbut
TTITLE10=Saule vandeny
TTITLE11=Vakar lijo cia
TTITLE12=The Longest Day (video)
EXTD=
EXTT0=
EXTT1=
EXTT2=
EXTT3=
EXTT4=
EXTT5=
EXTT6=
EXTT7=
EXTT8=
EXTT9=
EXTT10=
EXTT11=
EXTT12=
PLAYORDER=
